<mxfile host="app.diagrams.net" modified="2022-07-15T09:38:32.466Z" agent="5.0 (Windows NT 10.0; Win64; x64) AppleWebKit/537.36 (KHTML, like Gecko) Chrome/103.0.0.0 Safari/537.36" etag="Lz1k_FEzkPUvoyc3rlE3" version="18.1.3" type="github">
  <diagram id="R2lEEEUBdFMjLlhIrx00" name="Page-1">
    <mxGraphModel dx="1662" dy="762" grid="1" gridSize="10" guides="1" tooltips="1" connect="1" arrows="1" fold="1" page="1" pageScale="1" pageWidth="850" pageHeight="1100" math="0" shadow="0" extFonts="Permanent Marker^https://fonts.googleapis.com/css?family=Permanent+Marker">
      <root>
        <mxCell id="0" />
        <mxCell id="1" parent="0" />
        <mxCell id="-HmsmVNdSfZDhEHXPQf7-10" style="edgeStyle=orthogonalEdgeStyle;rounded=0;orthogonalLoop=1;jettySize=auto;html=1;exitX=0.5;exitY=1;exitDx=0;exitDy=0;entryX=0.5;entryY=0;entryDx=0;entryDy=0;" edge="1" parent="1" source="-HmsmVNdSfZDhEHXPQf7-1" target="-HmsmVNdSfZDhEHXPQf7-9">
          <mxGeometry relative="1" as="geometry" />
        </mxCell>
        <mxCell id="-HmsmVNdSfZDhEHXPQf7-1" value="Group" style="rounded=0;whiteSpace=wrap;html=1;" vertex="1" parent="1">
          <mxGeometry x="80" y="130" width="160" height="60" as="geometry" />
        </mxCell>
        <mxCell id="-HmsmVNdSfZDhEHXPQf7-2" value="Website" style="rounded=0;whiteSpace=wrap;html=1;" vertex="1" parent="1">
          <mxGeometry x="80" y="300" width="160" height="60" as="geometry" />
        </mxCell>
        <mxCell id="-HmsmVNdSfZDhEHXPQf7-3" value="Name" style="ellipse;whiteSpace=wrap;html=1;aspect=fixed;" vertex="1" parent="1">
          <mxGeometry x="60" y="50" width="40" height="40" as="geometry" />
        </mxCell>
        <mxCell id="-HmsmVNdSfZDhEHXPQf7-4" value="" style="endArrow=none;html=1;rounded=0;entryX=0.25;entryY=0;entryDx=0;entryDy=0;exitX=0.5;exitY=1;exitDx=0;exitDy=0;" edge="1" parent="1" source="-HmsmVNdSfZDhEHXPQf7-3" target="-HmsmVNdSfZDhEHXPQf7-1">
          <mxGeometry width="50" height="50" relative="1" as="geometry">
            <mxPoint x="400" y="350" as="sourcePoint" />
            <mxPoint x="450" y="300" as="targetPoint" />
          </mxGeometry>
        </mxCell>
        <mxCell id="-HmsmVNdSfZDhEHXPQf7-11" style="edgeStyle=orthogonalEdgeStyle;rounded=0;orthogonalLoop=1;jettySize=auto;html=1;exitX=0.5;exitY=1;exitDx=0;exitDy=0;entryX=0.5;entryY=0;entryDx=0;entryDy=0;" edge="1" parent="1" source="-HmsmVNdSfZDhEHXPQf7-9" target="-HmsmVNdSfZDhEHXPQf7-2">
          <mxGeometry relative="1" as="geometry" />
        </mxCell>
        <mxCell id="-HmsmVNdSfZDhEHXPQf7-9" value="Own" style="rhombus;whiteSpace=wrap;html=1;" vertex="1" parent="1">
          <mxGeometry x="135" y="220" width="50" height="50" as="geometry" />
        </mxCell>
        <mxCell id="-HmsmVNdSfZDhEHXPQf7-13" value="Name" style="ellipse;whiteSpace=wrap;html=1;aspect=fixed;" vertex="1" parent="1">
          <mxGeometry x="40" y="220" width="40" height="40" as="geometry" />
        </mxCell>
        <mxCell id="-HmsmVNdSfZDhEHXPQf7-14" value="" style="endArrow=none;html=1;rounded=0;entryX=1;entryY=1;entryDx=0;entryDy=0;exitX=0.15;exitY=0.017;exitDx=0;exitDy=0;exitPerimeter=0;" edge="1" parent="1" source="-HmsmVNdSfZDhEHXPQf7-2" target="-HmsmVNdSfZDhEHXPQf7-13">
          <mxGeometry width="50" height="50" relative="1" as="geometry">
            <mxPoint x="400" y="350" as="sourcePoint" />
            <mxPoint x="450" y="300" as="targetPoint" />
            <Array as="points" />
          </mxGeometry>
        </mxCell>
        <mxCell id="-HmsmVNdSfZDhEHXPQf7-15" value="Address" style="ellipse;whiteSpace=wrap;html=1;aspect=fixed;" vertex="1" parent="1">
          <mxGeometry x="10" y="270" width="40" height="40" as="geometry" />
        </mxCell>
        <mxCell id="-HmsmVNdSfZDhEHXPQf7-16" value="" style="endArrow=none;html=1;rounded=0;exitX=1;exitY=1;exitDx=0;exitDy=0;entryX=0;entryY=0.5;entryDx=0;entryDy=0;" edge="1" parent="1" source="-HmsmVNdSfZDhEHXPQf7-15" target="-HmsmVNdSfZDhEHXPQf7-2">
          <mxGeometry width="50" height="50" relative="1" as="geometry">
            <mxPoint x="30" y="380" as="sourcePoint" />
            <mxPoint x="80" y="330" as="targetPoint" />
          </mxGeometry>
        </mxCell>
      </root>
    </mxGraphModel>
  </diagram>
</mxfile>
